<?xml version="1.0" encoding="UTF-8" standalone="no"?>
<svg
   id="svg"
   fill="#ffffff"
   stroke="#ffffff"
   width="98.740578"
   height="157.83107"
   version="1.1"
   viewBox="144 144 252.77588 404.04754"
   sodipodi:docname="108ad7eb0de7f2331c5dc46fa359b9f6.svg"
   xmlns:inkscape="http://www.inkscape.org/namespaces/inkscape"
   xmlns:sodipodi="http://sodipodi.sourceforge.net/DTD/sodipodi-0.dtd"
   xmlns="http://www.w3.org/2000/svg"
   xmlns:svg="http://www.w3.org/2000/svg">
  <defs
     id="defs12" />
  <sodipodi:namedview
     id="namedview10"
     pagecolor="#ffffff"
     bordercolor="#666666"
     borderopacity="1.0"
     inkscape:pageshadow="2"
     inkscape:pageopacity="0.0"
     inkscape:pagecheckerboard="0" />
  <g
     id="IconSvg_bgCarrier"
     stroke-width="0"
     transform="translate(-129.61265,-53.977158)" />
  <g
     id="IconSvg_tracerCarrier"
     stroke-linecap="round"
     stroke-linejoin="round"
     stroke="#cccccc"
     stroke-width="0"
     transform="translate(-129.61265,-53.977158)">
    <path
       d="m 524.93,380.26 c -2,-6.1836 -7.5547,-12.441 -17.457,-14.801 0.0312,-0.0469 0.0664,-0.0937 0.10156,-0.13672 0.65625,-0.91406 1.2812,-1.793 1.8477,-2.4922 9.0742,-11.113 11.348,-48.543 11.301,-52.227 -0.0469,-3.2852 0.0273,-6.6133 0.0977,-9.9492 0.30078,-13.656 0.60938,-27.777 -6.7852,-40.375 v -0.004 c -6.4453,-10.988 -16.34,-16.488 -26.062,-20.801 -3.0703,-1.3594 -6.1797,-2.2266 -9.1875,-3.0625 -2.6875,-0.75 -5.2266,-1.457 -7.4102,-2.4297 -1.1211,-0.50781 -1.3242,-0.59766 -2.7969,-3.1484 -24.582,-42.461 -72.551,-33.465 -111.08,-26.246 -20.426,3.8242 -39.715,7.4375 -50.285,2.3633 -3.4102,-1.6406 -6.2266,-0.26172 -7.5898,1.4062 -1.3164,1.6055 -5.1523,6.2812 13.086,31.855 -9.1875,4.2109 -18.34,9.6914 -24.426,20.066 -7.3945,12.598 -7.0859,26.719 -6.7852,40.375 0.0742,3.3359 0.14453,6.6641 0.0976,9.9531 -0.0469,3.6758 2.2266,41.109 11.289,52.211 0.52734,0.64844 1.1055,1.4609 1.7031,2.293 -11.152,1.9453 -17.383,8.5547 -19.516,15.148 -2.7422,8.4648 -0.21484,20.945 15.074,30.578 7.2148,4.5859 14.637,3.75 19.07,3.2383 0.5,-0.0586 1.1016,-0.125 1.6211,-0.17188 12.109,16.996 21.945,23.516 31.777,29.176 15.211,8.7617 31.922,11.473 39.812,12.297 0.0937,3.5273 -0.0312,9.1797 -0.28125,14.727 -6.8008,1.0117 -13.469,2.4844 -19.984,5.3633 -1.4336,-1.4375 -3.5703,-2.0117 -5.5625,-1.3008 -24.746,8.9258 -34.328,20.426 -46.172,37.02 -8.0977,11.703 -10.801,32.258 -11.641,47.445 -0.71875,13.242 0.10547,28.41 1.1875,36.926 0.64453,4.8828 4.3008,5.9688 13.895,5.9688 3.0938,0 6.8008,-0.11328 11.223,-0.25 5.8164,-0.17578 12.422,-0.35547 19.578,-0.37109 l 12.734,0.0312 c 14.984,0.0508 35.504,0.12109 43.984,-0.0312 l 17.277,0.0937 11.859,-0.0312 c 5.2695,-0.0195 12.016,-0.0469 24.402,-0.0625 4.7656,-0.0117 9.4766,0.0352 13.875,0.0781 25.152,0.25391 31.129,0.28516 31.977,-6.375 0.92969,-7.3789 0.9375,-19.484 0.0352,-35.977 -0.83203,-15.168 -3.5273,-35.707 -11.688,-47.516 -11.809,-16.535 -21.398,-28.039 -46.129,-36.953 -1.9297,-0.69531 -4.0156,-0.17188 -5.4531,1.1914 -6.3164,-2.6328 -12.789,-3.8633 -19.09,-4.9688 l -0.58984,-0.10547 c -0.25781,-5.5859 -0.39062,-11.305 -0.30078,-14.871 8.4922,-0.79297 27.109,-3.4805 42.621,-12.402 9.207,-5.3047 16.645,-11.59 28.992,-29.109 0.51172,0.0469 1.1016,0.11328 1.5977,0.17188 4.4375,0.50781 11.855,1.3516 19.047,-3.2227 15.32,-9.6406 17.852,-22.121 15.109,-30.586 z M 292.27,310.752 c 0.0508,-3.4102 -0.0273,-6.8672 -0.10156,-10.336 -0.27734,-12.727 -0.54297,-24.75 5.3164,-34.734 4.6445,-7.9141 11.828,-12.297 21.188,-16.445 1.3125,-0.58594 2.6797,-1.0469 4.0508,-1.4805 1.6523,-0.51953 2.9492,-1.8086 3.4805,-3.457 0.53125,-1.6523 0.22656,-3.457 -0.8125,-4.8398 -6.1797,-8.2383 -10.527,-15.129 -13.207,-19.98 12.809,2.0664 29.062,-0.98437 47.281,-4.3945 37.062,-6.9414 79.074,-14.824 99.863,21.094 1.8711,3.2344 3.5117,5.6719 7.668,7.5469 2.9258,1.3047 5.9727,2.1562 8.9219,2.9766 2.7578,0.76562 5.3633,1.4961 7.7188,2.5391 9.3555,4.1445 16.539,8.5312 21.184,16.441 5.8594,9.9883 5.5977,22.012 5.3164,34.734 -0.0742,3.4648 -0.15234,6.9219 -0.10156,10.328 0.0898,6.7812 -3.168,38.316 -8.9023,45.336 -0.69531,0.85938 -1.457,1.9141 -2.2461,3.0195 -0.23047,0.32422 -0.51172,0.71484 -0.8125,1.1289 -0.5625,-3.2188 -0.91797,-6.5117 -1.2656,-9.7188 -1.25,-11.602 -2.5469,-23.598 -13.262,-33.113 -15.68,-13.945 -22.969,-38.438 -16.949,-56.977 0.71875,-2.207 -0.0742,-4.6289 -1.9609,-5.9844 -1.8867,-1.3555 -4.4375,-1.3359 -6.2969,0.043 -16.77,12.422 -48.516,14.664 -61.613,15.062 -0.31641,0.0195 -30.844,2.0508 -51.941,-10.617 -1.8242,-1.0938 -4.1211,-1 -5.8555,0.23438 -1.7305,1.2383 -2.5625,3.3867 -2.1133,5.4648 3.8398,17.859 -3.7539,40.055 -18.055,52.77 -10.719,9.5156 -12.012,21.512 -13.262,33.113 -0.34766,3.207 -0.70312,6.5039 -1.2656,9.7188 -0.30078,-0.41406 -0.58203,-0.80469 -0.8125,-1.1289 -0.79297,-1.1055 -1.5508,-2.1602 -2.2578,-3.0312 -5.7266,-7 -8.9844,-38.535 -8.8945,-45.312 z m 151.04,174.96 c 19.344,7.7656 26.863,17.258 37.07,31.543 5.1484,7.4531 8.7031,22.746 9.7617,41.961 0.73438,13.367 0.84766,23.914 0.34375,30.844 -4.4688,0.39453 -13.805,0.3125 -21.59,0.23828 -4.4336,-0.043 -9.1836,-0.0937 -13.988,-0.0781 -12.402,0.0156 -19.156,0.043 -24.434,0.0625 l -11.785,0.0312 -17.367,-0.0937 c -8.4922,0.14453 -28.957,0.0781 -43.891,0.0312 l -12.754,-0.0312 c -7.1055,-0.0156 -14,0.19922 -19.914,0.375 -5.3516,0.16016 -11.254,0.34375 -14.582,0.19141 -0.83203,-8.5156 -1.3125,-21.062 -0.73828,-31.57 1.0781,-19.523 4.5469,-34.422 9.7148,-41.898 10.219,-14.316 17.727,-23.805 36.992,-31.566 8.0195,12.102 26.867,32.562 43.645,32.562 10.348,0.008 32.449,-16.875 43.516,-32.602 z m 60.797,-83.887 c -4.0234,2.5508 -8.3359,2.0547 -12.125,1.6367 -3.5312,-0.39062 -7.9336,-0.89844 -10.516,2.8281 -11.84,17.023 -18.488,22.789 -26.617,27.461 -18.02,10.375 -41.988,11.297 -42.23,11.309 -1.9922,0.0625 -3.7852,1.2344 -4.6445,3.0352 -0.52734,1.1094 -1.9297,4.0508 -0.55469,27.086 0.16797,2.8359 2.5234,5.0234 5.3242,5.0234 0.0312,0 0.0625,-0.004 0.0977,-0.004 0.0742,0.0156 0.12891,0.0664 0.20312,0.082 l 3.5586,0.63672 c 5.0391,0.88281 9.8672,1.7422 14.398,3.3008 -10.504,12.582 -26.414,23.422 -31.215,23.422 -9.6641,0 -23.328,-12.641 -31.48,-23.203 5.8711,-2.2695 12.164,-3.3711 18.641,-4.2461 0.0976,0.004 0.19141,0.008 0.28906,0.008 2.8047,0 5.1602,-2.1914 5.3242,-5.0234 1.3672,-23.043 -0.043,-25.984 -0.57422,-27.09 -0.85938,-1.8008 -2.6484,-2.9688 -4.6406,-3.0312 -0.21094,-0.0117 -21.336,-0.82031 -39.418,-11.23 -9.3711,-5.3984 -18.047,-11.191 -29.41,-27.543 -2.6016,-3.7344 -6.9961,-3.2188 -10.523,-2.8203 -3.793,0.42578 -8.1016,0.92188 -12.148,-1.6484 -8.3438,-5.2617 -12.516,-12.426 -10.625,-18.262 1.832,-5.6602 9.0859,-8.9453 18.453,-8.3203 1.6094,0.11328 3.0234,-0.49609 4.0547,-1.5117 4.8711,-1.3984 6.1289,-7.1758 6.5391,-9.1367 0.92578,-4.4062 1.3945,-8.7344 1.8438,-12.926 1.1289,-10.461 2.1055,-19.492 9.7383,-26.277 14.605,-12.988 23.156,-33.52 22.617,-52.691 22.434,9.3164 47.785,7.6016 48.797,7.5195 14.23,-0.42578 38.305,-2.4922 56.688,-10.914 -1.9805,21.984 8.7734,43.887 22.492,56.086 7.6328,6.7812 8.6094,15.812 9.7383,26.273 0.44922,4.1875 0.91797,8.5195 1.8438,12.926 0.28125,1.3359 0.96484,4.4453 2.8984,6.7461 0.68359,2.3711 2.8516,4.0859 5.3789,3.8984 9.3945,-0.625 16.625,2.6602 18.457,8.3203 1.8906,5.8438 -2.2812,13.012 -10.652,18.281 z"
       id="path3" />
  </g>
  <g
     id="IconSvg_iconCarrier"
     transform="translate(-129.61265,-53.977158)">
    <path
       d="m 524.93,380.26 c -2,-6.1836 -7.5547,-12.441 -17.457,-14.801 0.0312,-0.0469 0.0664,-0.0937 0.10156,-0.13672 0.65625,-0.91406 1.2812,-1.793 1.8477,-2.4922 9.0742,-11.113 11.348,-48.543 11.301,-52.227 -0.0469,-3.2852 0.0273,-6.6133 0.0977,-9.9492 0.30078,-13.656 0.60938,-27.777 -6.7852,-40.375 v -0.004 c -6.4453,-10.988 -16.34,-16.488 -26.062,-20.801 -3.0703,-1.3594 -6.1797,-2.2266 -9.1875,-3.0625 -2.6875,-0.75 -5.2266,-1.457 -7.4102,-2.4297 -1.1211,-0.50781 -1.3242,-0.59766 -2.7969,-3.1484 -24.582,-42.461 -72.551,-33.465 -111.08,-26.246 -20.426,3.8242 -39.715,7.4375 -50.285,2.3633 -3.4102,-1.6406 -6.2266,-0.26172 -7.5898,1.4062 -1.3164,1.6055 -5.1523,6.2812 13.086,31.855 -9.1875,4.2109 -18.34,9.6914 -24.426,20.066 -7.3945,12.598 -7.0859,26.719 -6.7852,40.375 0.0742,3.3359 0.14453,6.6641 0.0976,9.9531 -0.0469,3.6758 2.2266,41.109 11.289,52.211 0.52734,0.64844 1.1055,1.4609 1.7031,2.293 -11.152,1.9453 -17.383,8.5547 -19.516,15.148 -2.7422,8.4648 -0.21484,20.945 15.074,30.578 7.2148,4.5859 14.637,3.75 19.07,3.2383 0.5,-0.0586 1.1016,-0.125 1.6211,-0.17188 12.109,16.996 21.945,23.516 31.777,29.176 15.211,8.7617 31.922,11.473 39.812,12.297 0.0937,3.5273 -0.0312,9.1797 -0.28125,14.727 -6.8008,1.0117 -13.469,2.4844 -19.984,5.3633 -1.4336,-1.4375 -3.5703,-2.0117 -5.5625,-1.3008 -24.746,8.9258 -34.328,20.426 -46.172,37.02 -8.0977,11.703 -10.801,32.258 -11.641,47.445 -0.71875,13.242 0.10547,28.41 1.1875,36.926 0.64453,4.8828 4.3008,5.9688 13.895,5.9688 3.0938,0 6.8008,-0.11328 11.223,-0.25 5.8164,-0.17578 12.422,-0.35547 19.578,-0.37109 l 12.734,0.0312 c 14.984,0.0508 35.504,0.12109 43.984,-0.0312 l 17.277,0.0937 11.859,-0.0312 c 5.2695,-0.0195 12.016,-0.0469 24.402,-0.0625 4.7656,-0.0117 9.4766,0.0352 13.875,0.0781 25.152,0.25391 31.129,0.28516 31.977,-6.375 0.92969,-7.3789 0.9375,-19.484 0.0352,-35.977 -0.83203,-15.168 -3.5273,-35.707 -11.688,-47.516 -11.809,-16.535 -21.398,-28.039 -46.129,-36.953 -1.9297,-0.69531 -4.0156,-0.17188 -5.4531,1.1914 -6.3164,-2.6328 -12.789,-3.8633 -19.09,-4.9688 l -0.58984,-0.10547 c -0.25781,-5.5859 -0.39062,-11.305 -0.30078,-14.871 8.4922,-0.79297 27.109,-3.4805 42.621,-12.402 9.207,-5.3047 16.645,-11.59 28.992,-29.109 0.51172,0.0469 1.1016,0.11328 1.5977,0.17188 4.4375,0.50781 11.855,1.3516 19.047,-3.2227 15.32,-9.6406 17.852,-22.121 15.109,-30.586 z M 292.27,310.752 c 0.0508,-3.4102 -0.0273,-6.8672 -0.10156,-10.336 -0.27734,-12.727 -0.54297,-24.75 5.3164,-34.734 4.6445,-7.9141 11.828,-12.297 21.188,-16.445 1.3125,-0.58594 2.6797,-1.0469 4.0508,-1.4805 1.6523,-0.51953 2.9492,-1.8086 3.4805,-3.457 0.53125,-1.6523 0.22656,-3.457 -0.8125,-4.8398 -6.1797,-8.2383 -10.527,-15.129 -13.207,-19.98 12.809,2.0664 29.062,-0.98437 47.281,-4.3945 37.062,-6.9414 79.074,-14.824 99.863,21.094 1.8711,3.2344 3.5117,5.6719 7.668,7.5469 2.9258,1.3047 5.9727,2.1562 8.9219,2.9766 2.7578,0.76562 5.3633,1.4961 7.7188,2.5391 9.3555,4.1445 16.539,8.5312 21.184,16.441 5.8594,9.9883 5.5977,22.012 5.3164,34.734 -0.0742,3.4648 -0.15234,6.9219 -0.10156,10.328 0.0898,6.7812 -3.168,38.316 -8.9023,45.336 -0.69531,0.85938 -1.457,1.9141 -2.2461,3.0195 -0.23047,0.32422 -0.51172,0.71484 -0.8125,1.1289 -0.5625,-3.2188 -0.91797,-6.5117 -1.2656,-9.7188 -1.25,-11.602 -2.5469,-23.598 -13.262,-33.113 -15.68,-13.945 -22.969,-38.438 -16.949,-56.977 0.71875,-2.207 -0.0742,-4.6289 -1.9609,-5.9844 -1.8867,-1.3555 -4.4375,-1.3359 -6.2969,0.043 -16.77,12.422 -48.516,14.664 -61.613,15.062 -0.31641,0.0195 -30.844,2.0508 -51.941,-10.617 -1.8242,-1.0938 -4.1211,-1 -5.8555,0.23438 -1.7305,1.2383 -2.5625,3.3867 -2.1133,5.4648 3.8398,17.859 -3.7539,40.055 -18.055,52.77 -10.719,9.5156 -12.012,21.512 -13.262,33.113 -0.34766,3.207 -0.70312,6.5039 -1.2656,9.7188 -0.30078,-0.41406 -0.58203,-0.80469 -0.8125,-1.1289 -0.79297,-1.1055 -1.5508,-2.1602 -2.2578,-3.0312 -5.7266,-7 -8.9844,-38.535 -8.8945,-45.312 z m 151.04,174.96 c 19.344,7.7656 26.863,17.258 37.07,31.543 5.1484,7.4531 8.7031,22.746 9.7617,41.961 0.73438,13.367 0.84766,23.914 0.34375,30.844 -4.4688,0.39453 -13.805,0.3125 -21.59,0.23828 -4.4336,-0.043 -9.1836,-0.0937 -13.988,-0.0781 -12.402,0.0156 -19.156,0.043 -24.434,0.0625 l -11.785,0.0312 -17.367,-0.0937 c -8.4922,0.14453 -28.957,0.0781 -43.891,0.0312 l -12.754,-0.0312 c -7.1055,-0.0156 -14,0.19922 -19.914,0.375 -5.3516,0.16016 -11.254,0.34375 -14.582,0.19141 -0.83203,-8.5156 -1.3125,-21.062 -0.73828,-31.57 1.0781,-19.523 4.5469,-34.422 9.7148,-41.898 10.219,-14.316 17.727,-23.805 36.992,-31.566 8.0195,12.102 26.867,32.562 43.645,32.562 10.348,0.008 32.449,-16.875 43.516,-32.602 z m 60.797,-83.887 c -4.0234,2.5508 -8.3359,2.0547 -12.125,1.6367 -3.5312,-0.39062 -7.9336,-0.89844 -10.516,2.8281 -11.84,17.023 -18.488,22.789 -26.617,27.461 -18.02,10.375 -41.988,11.297 -42.23,11.309 -1.9922,0.0625 -3.7852,1.2344 -4.6445,3.0352 -0.52734,1.1094 -1.9297,4.0508 -0.55469,27.086 0.16797,2.8359 2.5234,5.0234 5.3242,5.0234 0.0312,0 0.0625,-0.004 0.0977,-0.004 0.0742,0.0156 0.12891,0.0664 0.20312,0.082 l 3.5586,0.63672 c 5.0391,0.88281 9.8672,1.7422 14.398,3.3008 -10.504,12.582 -26.414,23.422 -31.215,23.422 -9.6641,0 -23.328,-12.641 -31.48,-23.203 5.8711,-2.2695 12.164,-3.3711 18.641,-4.2461 0.0976,0.004 0.19141,0.008 0.28906,0.008 2.8047,0 5.1602,-2.1914 5.3242,-5.0234 1.3672,-23.043 -0.043,-25.984 -0.57422,-27.09 -0.85938,-1.8008 -2.6484,-2.9688 -4.6406,-3.0312 -0.21094,-0.0117 -21.336,-0.82031 -39.418,-11.23 -9.3711,-5.3984 -18.047,-11.191 -29.41,-27.543 -2.6016,-3.7344 -6.9961,-3.2188 -10.523,-2.8203 -3.793,0.42578 -8.1016,0.92188 -12.148,-1.6484 -8.3438,-5.2617 -12.516,-12.426 -10.625,-18.262 1.832,-5.6602 9.0859,-8.9453 18.453,-8.3203 1.6094,0.11328 3.0234,-0.49609 4.0547,-1.5117 4.8711,-1.3984 6.1289,-7.1758 6.5391,-9.1367 0.92578,-4.4062 1.3945,-8.7344 1.8438,-12.926 1.1289,-10.461 2.1055,-19.492 9.7383,-26.277 14.605,-12.988 23.156,-33.52 22.617,-52.691 22.434,9.3164 47.785,7.6016 48.797,7.5195 14.23,-0.42578 38.305,-2.4922 56.688,-10.914 -1.9805,21.984 8.7734,43.887 22.492,56.086 7.6328,6.7812 8.6094,15.812 9.7383,26.273 0.44922,4.1875 0.91797,8.5195 1.8438,12.926 0.28125,1.3359 0.96484,4.4453 2.8984,6.7461 0.68359,2.3711 2.8516,4.0859 5.3789,3.8984 9.3945,-0.625 16.625,2.6602 18.457,8.3203 1.8906,5.8438 -2.2812,13.012 -10.652,18.281 z"
       id="path6" />
  </g>
</svg>
