<?xml version="1.0" encoding="UTF-8" standalone="no"?>
<svg
   id="svg"
   fill="#ffffff"
   stroke="#ffffff"
   width="170.81789"
   height="196.80078"
   version="1.1"
   viewBox="144 144 437.29379 503.81"
   sodipodi:docname="708fc53ba0ac2d87045327274f7822cd.svg"
   xmlns:inkscape="http://www.inkscape.org/namespaces/inkscape"
   xmlns:sodipodi="http://sodipodi.sourceforge.net/DTD/sodipodi-0.dtd"
   xmlns="http://www.w3.org/2000/svg"
   xmlns:svg="http://www.w3.org/2000/svg">
  <defs
     id="defs67" />
  <sodipodi:namedview
     id="namedview65"
     pagecolor="#ffffff"
     bordercolor="#666666"
     borderopacity="1.0"
     inkscape:pageshadow="2"
     inkscape:pageopacity="0.0"
     inkscape:pagecheckerboard="0" />
  <g
     id="IconSvg_bgCarrier"
     stroke-width="0"
     transform="translate(-37.356413,-4.09)" />
  <g
     id="IconSvg_tracerCarrier"
     stroke-linecap="round"
     stroke-linejoin="round"
     stroke="#cccccc"
     stroke-width="0"
     transform="translate(-37.356413,-4.09)">
    <defs
       id="defs6">
      <clipPath
         id="a">
        <path
           d="M 181,148.09 H 619 V 651.9 H 181 Z"
           id="path3" />
      </clipPath>
    </defs>
    <path
       d="m 418.31,465.72 c 0.0547,-0.008 18.75,-2.5781 26.238,-12.98 5.9453,-8.2539 3.8828,-12.387 3.3281,-13.23 l -20.926,-20.926 c -0.84375,-0.55469 -4.9766,-2.6133 -13.23,3.3281 -10.402,7.4883 -12.973,26.184 -12.98,26.238 l -7.6836,-1.0938 c 0.008,-0.0625 3.0117,-21.98 16.137,-31.43 14.211,-10.23 22.812,-2.9258 22.84,-2.9062 l 0.28906,0.24219 21.176,21.176 0.24219,0.28906 c 0.0195,0.0234 7.3242,8.6289 -2.9062,22.84 -9.4492,13.125 -31.367,16.129 -31.43,16.137 z"
       id="path8" />
    <path
       d="m 390.82,446.69 c 2.793,-2.793 7.3281,-2.793 10.125,0 2.793,2.7969 2.793,7.332 0,10.125 -2.7969,2.7969 -7.332,2.7969 -10.125,0 -2.7969,-2.793 -2.7969,-7.3281 0,-10.125"
       fill-rule="evenodd"
       id="path10" />
    <path
       d="m 409.5,465.38 c 2.7969,-2.7969 7.3281,-2.7969 10.125,0 2.7969,2.793 2.7969,7.3281 0,10.121 -2.7969,2.7969 -7.3281,2.7969 -10.125,0 -2.7969,-2.793 -2.7969,-7.3281 0,-10.121"
       fill-rule="evenodd"
       id="path12" />
    <path
       d="m 364.29,266.72 h 51.992 c 5.4414,0 10.383,2.2227 13.965,5.8047 3.582,3.582 5.8047,8.5234 5.8047,13.965 v 14.766 c 0,1.5625 -0.18359,3.0898 -0.53516,4.5547 -0.16406,0.6875 -0.36719,1.3672 -0.60547,2.0352 l 0.10156,0.14844 c 0.50391,0.73828 0.96875,1.4727 1.3906,2.2031 l 0.51562,1.9297 v 3.5352 c 2.2383,2.7617 3.6445,5.9219 4.3438,9.3633 1.6953,8.3789 -0.98828,18.285 -6.1016,27.922 -4.9297,9.293 -12.16,18.449 -19.828,25.684 -8.1523,7.6914 -16.961,13.309 -24.285,14.789 h -1.5195 c -7.3242,-1.4805 -16.129,-7.0977 -24.285,-14.789 -7.6758,-7.2422 -14.91,-16.398 -19.828,-25.668 -5.1133,-9.6367 -7.7969,-19.551 -6.1016,-27.938 0.69531,-3.4414 2.1055,-6.6016 4.3438,-9.3633 v -3.5352 l 0.51562,-1.9297 c 1.4766,-2.5703 1.7461,-1.9922 1.6289,-2.2461 -0.51562,-1.1055 -1.2773,-2.75 -1.2773,-6.6953 v -14.766 c 0,-5.4414 2.2227,-10.383 5.8047,-13.965 3.582,-3.582 8.5234,-5.8047 13.965,-5.8047 z m 51.992,7.7734 H 364.29 c -3.293,0 -6.293,1.3516 -8.4688,3.5273 -2.1758,2.1758 -3.5273,5.1758 -3.5273,8.4688 v 14.766 c 0,2.2344 0.32813,2.9414 0.55078,3.418 1.1328,2.4297 1.5078,3.2383 -1.418,8.4727 v 3.9609 l -1.0625,2.6562 c -1.832,1.9414 -2.9492,4.2422 -3.4609,6.7852 -1.3047,6.4531 1.0273,14.594 5.3711,22.777 4.5352,8.5508 11.203,16.988 18.281,23.664 6.875,6.4883 14.004,11.242 19.727,12.672 5.7266,-1.4336 12.852,-6.1875 19.73,-12.672 7.0859,-6.6875 13.754,-15.121 18.281,-23.648 4.3438,-8.1875 6.6797,-16.328 5.3711,-22.789 -0.51562,-2.543 -1.6289,-4.8398 -3.4609,-6.7852 l -1.0625,-2.6562 v -3.9102 c -0.17969,-0.28906 -0.35938,-0.5625 -0.53906,-0.82422 -0.375,-0.54688 -0.76172,-1.0703 -1.1602,-1.5625 l -1.5664,-1.9453 1.1289,-2.2305 c 0.40625,-0.80469 0.72656,-1.6797 0.94922,-2.6094 0.21094,-0.88281 0.32422,-1.8086 0.32422,-2.7656 v -14.766 c 0,-3.293 -1.3516,-6.293 -3.5273,-8.4688 -2.1758,-2.1758 -5.1758,-3.5273 -8.4688,-3.5273 z"
       id="path14" />
    <path
       d="m 349.65,303.23 h 83.594 v 7.7734 H 349.65 Z"
       id="path16" />
    <path
       d="m 435.55,375.2 c 0.54688,0.0859 1.9258,0.32031 3.9062,0.8125 10.496,2.6094 38.961,12.727 52.324,47.492 7.7617,20.195 10.391,48.727 1.1992,88.941 h 0.008 c -0.41797,1.8242 -2.0547,3.0508 -3.8555,3.0195 h -197.76 c -1.9531,0 -3.5742,-1.4414 -3.8477,-3.3203 -28.547,-125.55 57.367,-136.94 57.738,-136.99 v -0.004 c 1.6641,-0.24609 3.2344,0.60156 3.9883,2 7.0469,12.035 15.074,20.504 23.477,25.41 5.7461,3.3555 11.668,5.0312 17.559,5.0312 5.891,0 11.812,-1.6797 17.559,-5.0312 8.4297,-4.9219 16.48,-13.426 23.543,-25.523 l 3.3555,1.957 -3.3555,-1.9609 c 0.86719,-1.4844 2.5664,-2.1797 4.1641,-1.8438 z m 2.0547,8.3438 c -0.32812,-0.082 -0.63672,-0.15625 -0.92578,-0.21875 -7.4336,12.051 -15.934,20.707 -24.918,25.953 -6.957,4.0625 -14.203,6.0938 -21.477,6.0938 -7.274,0 -14.516,-2.0312 -21.477,-6.0938 -8.9883,-5.2461 -17.488,-13.902 -24.922,-25.957 -13.004,2.9258 -71.582,21.93 -49.395,124.38 h 191.59 c 8,-36.914 5.543,-63.008 -1.5352,-81.43 -12.035,-31.305 -37.547,-40.387 -46.949,-42.727 z"
       id="path18" />
    <path
       d="m 437.3,423.7 c 0.0469,-0.0508 16.805,-18.016 -3.6016,-41.84 l 5.8906,-5.0391 c 24.887,29.059 3.5078,52.004 3.4492,52.07 z"
       id="path20" />
    <path
       d="m 346.85,385.91 c 1.543,-1.4844 1.5898,-3.9375 0.10547,-5.4805 -1.4844,-1.543 -3.9375,-1.5898 -5.4805,-0.10547 -5.5508,5.3242 -9.4336,16.051 -11.273,27.449 -1.9258,11.902 -1.6875,24.82 1.168,33.098 0.69531,2.0195 2.8984,3.0938 4.918,2.3984 2.0195,-0.69531 3.0938,-2.8984 2.3984,-4.918 -2.4453,-7.0859 -2.5781,-18.57 -0.83594,-29.363 1.6016,-9.9023 4.7227,-18.977 8.9961,-23.078 z"
       id="path22" />
    <path
       d="m 335.03,435.73 0.0898,0.0156 c 3.5703,0.0898 6.7539,1.6523 9.0117,4.0977 2.207,2.3906 3.5352,5.6406 3.4688,9.1914 h 0.0117 l -0.0156,0.0898 c -0.0937,3.5938 -1.5977,6.8164 -3.9531,9.1211 -2.3555,2.3047 -5.5703,3.6914 -9.0898,3.625 v 0.0117 l -0.0898,-0.0156 c -3.5703,-0.0898 -6.7539,-1.6523 -9.01171,-4.0977 -2.2266,-2.4141 -3.5586,-5.6992 -3.46879,-9.2852 0.0937,-3.5938 1.59769,-6.8164 3.9531,-9.1211 2.3555,-2.3047 5.57029,-3.6914 9.0898,-3.625 v -0.0117 z m 0,7.7617 v 0.0117 l -0.0898,-0.0156 c -1.3789,-0.0352 -2.6523,0.51562 -3.5938,1.4375 -0.96094,0.94141 -1.5781,2.2617 -1.6133,3.7461 -0.0391,1.4883 0.51172,2.8516 1.4336,3.8477 0.86719,0.94141 2.0664,1.5469 3.3945,1.6055 v -0.0117 l 0.0898,0.0156 c 1.3789,0.0352 2.6523,-0.51562 3.5938,-1.4375 0.94141,-0.92188 1.5508,-2.2109 1.6133,-3.6523 h -0.0117 l 0.0156,-0.0898 c 0.0391,-1.4883 -0.51172,-2.8516 -1.4336,-3.8477 -0.86719,-0.94141 -2.0664,-1.5469 -3.3945,-1.6055 z"
       id="path24" />
    <path
       d="m 338.53,448.9 c -0.12891,5.1289 -7.6094,4.9375 -7.4805,-0.19141 0.13281,-5.1328 7.6133,-4.9375 7.4805,0.19141"
       fill-rule="evenodd"
       id="path26" />
    <g
       clip-path="url(#a)"
       id="g30">
      <path
         d="m 403.89,150.37 105.19,60.73 -0.008,0.0117 105.16,60.715 3.918,2.2617 v 251.81 l -3.918,2.2617 -105.16,60.715 0.008,0.0117 -105.19,60.73 -3.8867,2.2422 -3.8867,-2.2422 -105.19,-60.73 0.008,-0.0117 -105.16,-60.715 -3.918,-2.2617 v -251.81 l 3.918,-2.2617 105.16,-60.715 -0.008,-0.0117 105.19,-60.73 3.8867,-2.2422 z m 97.414,74.148 -101.3,-58.484 -101.3,58.484 h -0.0312 l -101.27,58.469 v 234.02 l 101.27,58.469 h 0.0312 l 101.3,58.484 101.3,-58.484 h 0.0312 l 101.27,-58.469 v -234.02 l -101.27,-58.469 z"
         id="path28" />
    </g>
  </g>
  <g
     id="IconSvg_iconCarrier"
     transform="translate(-37.356413,-4.09)">
    <defs
       id="defs37">
      <clipPath
         id="clipPath35">
        <path
           d="M 181,148.09 H 619 V 651.9 H 181 Z"
           id="path33" />
      </clipPath>
    </defs>
    <path
       d="m 418.31,465.72 c 0.0547,-0.008 18.75,-2.5781 26.238,-12.98 5.9453,-8.2539 3.8828,-12.387 3.3281,-13.23 l -20.926,-20.926 c -0.84375,-0.55469 -4.9766,-2.6133 -13.23,3.3281 -10.402,7.4883 -12.973,26.184 -12.98,26.238 l -7.6836,-1.0938 c 0.008,-0.0625 3.0117,-21.98 16.137,-31.43 14.211,-10.23 22.812,-2.9258 22.84,-2.9062 l 0.28906,0.24219 21.176,21.176 0.24219,0.28906 c 0.0195,0.0234 7.3242,8.6289 -2.9062,22.84 -9.4492,13.125 -31.367,16.129 -31.43,16.137 z"
       id="path39" />
    <path
       d="m 390.82,446.69 c 2.793,-2.793 7.3281,-2.793 10.125,0 2.793,2.7969 2.793,7.332 0,10.125 -2.7969,2.7969 -7.332,2.7969 -10.125,0 -2.7969,-2.793 -2.7969,-7.3281 0,-10.125"
       fill-rule="evenodd"
       id="path41" />
    <path
       d="m 409.5,465.38 c 2.7969,-2.7969 7.3281,-2.7969 10.125,0 2.7969,2.793 2.7969,7.3281 0,10.121 -2.7969,2.7969 -7.3281,2.7969 -10.125,0 -2.7969,-2.793 -2.7969,-7.3281 0,-10.121"
       fill-rule="evenodd"
       id="path43" />
    <path
       d="m 364.29,266.72 h 51.992 c 5.4414,0 10.383,2.2227 13.965,5.8047 3.582,3.582 5.8047,8.5234 5.8047,13.965 v 14.766 c 0,1.5625 -0.18359,3.0898 -0.53516,4.5547 -0.16406,0.6875 -0.36719,1.3672 -0.60547,2.0352 l 0.10156,0.14844 c 0.50391,0.73828 0.96875,1.4727 1.3906,2.2031 l 0.51562,1.9297 v 3.5352 c 2.2383,2.7617 3.6445,5.9219 4.3438,9.3633 1.6953,8.3789 -0.98828,18.285 -6.1016,27.922 -4.9297,9.293 -12.16,18.449 -19.828,25.684 -8.1523,7.6914 -16.961,13.309 -24.285,14.789 h -1.5195 c -7.3242,-1.4805 -16.129,-7.0977 -24.285,-14.789 -7.6758,-7.2422 -14.91,-16.398 -19.828,-25.668 -5.1133,-9.6367 -7.7969,-19.551 -6.1016,-27.938 0.69531,-3.4414 2.1055,-6.6016 4.3438,-9.3633 v -3.5352 l 0.51562,-1.9297 c 1.4766,-2.5703 1.7461,-1.9922 1.6289,-2.2461 -0.51562,-1.1055 -1.2773,-2.75 -1.2773,-6.6953 v -14.766 c 0,-5.4414 2.2227,-10.383 5.8047,-13.965 3.582,-3.582 8.5234,-5.8047 13.965,-5.8047 z m 51.992,7.7734 H 364.29 c -3.293,0 -6.293,1.3516 -8.4688,3.5273 -2.1758,2.1758 -3.5273,5.1758 -3.5273,8.4688 v 14.766 c 0,2.2344 0.32813,2.9414 0.55078,3.418 1.1328,2.4297 1.5078,3.2383 -1.418,8.4727 v 3.9609 l -1.0625,2.6562 c -1.832,1.9414 -2.9492,4.2422 -3.4609,6.7852 -1.3047,6.4531 1.0273,14.594 5.3711,22.777 4.5352,8.5508 11.203,16.988 18.281,23.664 6.875,6.4883 14.004,11.242 19.727,12.672 5.7266,-1.4336 12.852,-6.1875 19.73,-12.672 7.0859,-6.6875 13.754,-15.121 18.281,-23.648 4.3438,-8.1875 6.6797,-16.328 5.3711,-22.789 -0.51562,-2.543 -1.6289,-4.8398 -3.4609,-6.7852 l -1.0625,-2.6562 v -3.9102 c -0.17969,-0.28906 -0.35938,-0.5625 -0.53906,-0.82422 -0.375,-0.54688 -0.76172,-1.0703 -1.1602,-1.5625 l -1.5664,-1.9453 1.1289,-2.2305 c 0.40625,-0.80469 0.72656,-1.6797 0.94922,-2.6094 0.21094,-0.88281 0.32422,-1.8086 0.32422,-2.7656 v -14.766 c 0,-3.293 -1.3516,-6.293 -3.5273,-8.4688 -2.1758,-2.1758 -5.1758,-3.5273 -8.4688,-3.5273 z"
       id="path45" />
    <path
       d="m 349.65,303.23 h 83.594 v 7.7734 H 349.65 Z"
       id="path47" />
    <path
       d="m 435.55,375.2 c 0.54688,0.0859 1.9258,0.32031 3.9062,0.8125 10.496,2.6094 38.961,12.727 52.324,47.492 7.7617,20.195 10.391,48.727 1.1992,88.941 h 0.008 c -0.41797,1.8242 -2.0547,3.0508 -3.8555,3.0195 h -197.76 c -1.9531,0 -3.5742,-1.4414 -3.8477,-3.3203 -28.547,-125.55 57.367,-136.94 57.738,-136.99 v -0.004 c 1.6641,-0.24609 3.2344,0.60156 3.9883,2 7.0469,12.035 15.074,20.504 23.477,25.41 5.7461,3.3555 11.668,5.0312 17.559,5.0312 5.891,0 11.812,-1.6797 17.559,-5.0312 8.4297,-4.9219 16.48,-13.426 23.543,-25.523 l 3.3555,1.957 -3.3555,-1.9609 c 0.86719,-1.4844 2.5664,-2.1797 4.1641,-1.8438 z m 2.0547,8.3438 c -0.32812,-0.082 -0.63672,-0.15625 -0.92578,-0.21875 -7.4336,12.051 -15.934,20.707 -24.918,25.953 -6.957,4.0625 -14.203,6.0938 -21.477,6.0938 -7.274,0 -14.516,-2.0312 -21.477,-6.0938 -8.9883,-5.2461 -17.488,-13.902 -24.922,-25.957 -13.004,2.9258 -71.582,21.93 -49.395,124.38 h 191.59 c 8,-36.914 5.543,-63.008 -1.5352,-81.43 -12.035,-31.305 -37.547,-40.387 -46.949,-42.727 z"
       id="path49" />
    <path
       d="m 437.3,423.7 c 0.0469,-0.0508 16.805,-18.016 -3.6016,-41.84 l 5.8906,-5.0391 c 24.887,29.059 3.5078,52.004 3.4492,52.07 z"
       id="path51" />
    <path
       d="m 346.85,385.91 c 1.543,-1.4844 1.5898,-3.9375 0.10547,-5.4805 -1.4844,-1.543 -3.9375,-1.5898 -5.4805,-0.10547 -5.5508,5.3242 -9.4336,16.051 -11.273,27.449 -1.9258,11.902 -1.6875,24.82 1.168,33.098 0.69531,2.0195 2.8984,3.0938 4.918,2.3984 2.0195,-0.69531 3.0938,-2.8984 2.3984,-4.918 -2.4453,-7.0859 -2.5781,-18.57 -0.83594,-29.363 1.6016,-9.9023 4.7227,-18.977 8.9961,-23.078 z"
       id="path53" />
    <path
       d="m 335.03,435.73 0.0898,0.0156 c 3.5703,0.0898 6.7539,1.6523 9.0117,4.0977 2.207,2.3906 3.5352,5.6406 3.4688,9.1914 h 0.0117 l -0.0156,0.0898 c -0.0937,3.5938 -1.5977,6.8164 -3.9531,9.1211 -2.3555,2.3047 -5.5703,3.6914 -9.0898,3.625 v 0.0117 l -0.0898,-0.0156 c -3.5703,-0.0898 -6.7539,-1.6523 -9.01171,-4.0977 -2.2266,-2.4141 -3.5586,-5.6992 -3.46879,-9.2852 0.0937,-3.5938 1.59769,-6.8164 3.9531,-9.1211 2.3555,-2.3047 5.57029,-3.6914 9.0898,-3.625 v -0.0117 z m 0,7.7617 v 0.0117 l -0.0898,-0.0156 c -1.3789,-0.0352 -2.6523,0.51562 -3.5938,1.4375 -0.96094,0.94141 -1.5781,2.2617 -1.6133,3.7461 -0.0391,1.4883 0.51172,2.8516 1.4336,3.8477 0.86719,0.94141 2.0664,1.5469 3.3945,1.6055 v -0.0117 l 0.0898,0.0156 c 1.3789,0.0352 2.6523,-0.51562 3.5938,-1.4375 0.94141,-0.92188 1.5508,-2.2109 1.6133,-3.6523 h -0.0117 l 0.0156,-0.0898 c 0.0391,-1.4883 -0.51172,-2.8516 -1.4336,-3.8477 -0.86719,-0.94141 -2.0664,-1.5469 -3.3945,-1.6055 z"
       id="path55" />
    <path
       d="m 338.53,448.9 c -0.12891,5.1289 -7.6094,4.9375 -7.4805,-0.19141 0.13281,-5.1328 7.6133,-4.9375 7.4805,0.19141"
       fill-rule="evenodd"
       id="path57" />
    <g
       clip-path="url(#a)"
       id="g61">
      <path
         d="m 403.89,150.37 105.19,60.73 -0.008,0.0117 105.16,60.715 3.918,2.2617 v 251.81 l -3.918,2.2617 -105.16,60.715 0.008,0.0117 -105.19,60.73 -3.8867,2.2422 -3.8867,-2.2422 -105.19,-60.73 0.008,-0.0117 -105.16,-60.715 -3.918,-2.2617 v -251.81 l 3.918,-2.2617 105.16,-60.715 -0.008,-0.0117 105.19,-60.73 3.8867,-2.2422 z m 97.414,74.148 -101.3,-58.484 -101.3,58.484 h -0.0312 l -101.27,58.469 v 234.02 l 101.27,58.469 h 0.0312 l 101.3,58.484 101.3,-58.484 h 0.0312 l 101.27,-58.469 v -234.02 l -101.27,-58.469 z"
         id="path59" />
    </g>
  </g>
</svg>
